<svg xmlns="http://www.w3.org/2000/svg" xmlns:xlink="http://www.w3.org/1999/xlink" version="1.1" x="0px" y="0px" viewBox="0 0 100 125" style="enable-background:new 0 0 100 100;" xml:space="preserve"><g><path d="M61.6768,72.1938c1.0234,0,2.0479-0.3906,2.8291-1.1719c1.5615-1.562,1.5615-4.0947-0.001-5.6567   c-3.4795-3.4785-8.0967-5.3945-13.002-5.3945c-4.9062,0-9.5234,1.916-13.0029,5.3945c-1.5625,1.562-1.5625,4.0947-0.001,5.6567   s4.0938,1.5625,5.6572,0.0005c1.9688-1.9678,4.5771-3.0518,7.3467-3.0518c2.7686,0,5.377,1.084,7.3457,3.0518   C59.6299,71.8032,60.6533,72.1938,61.6768,72.1938z"/><path d="M57.291,46.0991c-1.8203-0.354-3.7139-0.5264-5.7881-0.5264c-8.8252,0-17.0576,3.4316-23.1807,9.6626   c-1.5488,1.5757-1.5264,4.1084,0.0488,5.6567c0.7793,0.7651,1.791,1.147,2.8037,1.147c1.0352,0,2.0703-0.3994,2.8525-1.1963   c4.6074-4.688,10.8135-7.27,17.4756-7.27c1.5557,0,2.9492,0.124,4.2607,0.3789c2.1738,0.4243,4.2686-0.9946,4.6904-3.1626   C60.876,48.6206,59.46,46.521,57.291,46.0991z"/><path d="M53.2598,31.2412c-0.6514-0.0654-1.2383-0.0654-1.7568-0.0654c-12.623,0-24.4678,4.9209-33.3516,13.8564   c-1.5576,1.5669-1.5498,4.0996,0.0166,5.6567c0.7803,0.7759,1.8008,1.1636,2.8203,1.1636c1.0273,0,2.0547-0.3936,2.8369-1.1797   c7.3711-7.4141,17.2002-11.4971,27.6777-11.4971c0.3623,0,0.7051,0,0.958,0.0254c2.1953,0.2192,4.1582-1.3823,4.3789-3.5801   C57.0615,33.4229,55.458,31.4619,53.2598,31.2412z"/><path d="M7.9287,40.4492c0.7812,0.7808,1.8047,1.1714,2.8281,1.1714s2.0479-0.3906,2.8281-1.1719   c9.4209-9.4209,21.8916-14.9521,35.1221-15.5796c2.1826-0.0303,3.9209-1.8096,3.9209-3.9995c0-2.2705-1.9414-4.1108-4.2061-3.9956   c-15.2578,0.6997-29.6396,7.0635-40.4932,17.9185C6.3662,36.3545,6.3662,38.8872,7.9287,40.4492z"/><circle cx="51.5025" cy="78.3684" r="4.7993"/><path d="M88.9443,21.5151c-1.5625-1.5615-4.0957-1.5615-5.6562,0l-6.2397,6.2399l-6.2397-6.2399   c-1.5625-1.5615-4.0957-1.5615-5.6562,0c-1.5625,1.562-1.5625,4.0947,0,5.6572l6.2393,6.2395l-6.2393,6.2395   c-1.5625,1.5625-1.5625,4.0952,0,5.6572c0.7812,0.7808,1.8047,1.1714,2.8281,1.1714s2.0479-0.3906,2.8281-1.1714l6.2397-6.2399   l6.2397,6.2399c0.7812,0.7808,1.8047,1.1714,2.8281,1.1714s2.0479-0.3906,2.8281-1.1714c1.5625-1.562,1.5625-4.0947,0-5.6572   l-6.2393-6.2395l6.2393-6.2395C90.5068,25.6099,90.5068,23.0771,88.9443,21.5151z"/></g></svg>